<?xml version="1.0" encoding="UTF-8"?>
<svg id="Capa_1" data-name="Capa 1" xmlns="http://www.w3.org/2000/svg" viewBox="0 0 627.18 133.2">
  <defs>
    <style>
      .cls-1 {
        fill: #e1514e;
      }

      .cls-2 {
        fill: #e04344;
      }

      .cls-3 {
        fill: #df4242;
      }

      .cls-4 {
        fill: #e25957;
      }

      .cls-5 {
        fill: #e14e4c;
      }

      .cls-6 {
        fill: #df4243;
      }

      .cls-7 {
        fill: #e04646;
      }

      .cls-8 {
        fill: none;
      }

      .cls-9 {
        fill: #e04645;
      }

      .cls-10 {
        fill: #e04343;
      }

      .cls-11 {
        fill: #e25351;
      }

      .cls-12 {
        fill: #e25854;
      }

      .cls-13 {
        fill: #e04545;
      }

      .cls-14 {
        fill: #e04a49;
      }

      .cls-15 {
        fill: #e14d4c;
      }

      .cls-16 {
        fill: #f9f7f6;
      }

      .cls-17 {
        fill: #e25653;
      }

      .cls-18 {
        fill: #e04746;
      }

      .cls-19 {
        fill: #e1514f;
      }

      .cls-20 {
        fill: #e15250;
      }

      .cls-21 {
        fill: #e1504e;
      }

      .cls-22 {
        fill: #e15351;
      }

      .cls-23 {
        fill: #e46864;
      }

      .cls-24 {
        fill: #e04948;
      }

      .cls-25 {
        fill: #e04544;
      }

      .cls-26 {
        fill: #e25a57;
      }

      .cls-27 {
        fill: #df4343;
      }

      .cls-28 {
        fill: #e15350;
      }

      .cls-29 {
        fill: #e04847;
      }
    </style>
  </defs>
  <polygon class="cls-3" points="354.98 29.99 354.98 106.83 400.77 106.83 400.77 124.2 334.45 124.2 334.45 29.99 354.98 29.99"/>
  <rect class="cls-3" x="133.93" y="29.99" width="20.53" height="94.21"/>
  <path class="cls-6" d="M19.07,107.98c7.1-.81,8.18,10.69.9,10.99-6.89.29-7.86-10.2-.9-10.99Z"/>
  <path class="cls-10" d="M53.28,24.83c7.5-1.09,8.53,10.12,1.32,10.85-6.48.65-8.41-9.81-1.32-10.85Z"/>
  <path class="cls-6" d="M84.62,109.63c5-5.39,13.07,3.02,7.7,7.97-5.12,4.71-12.33-2.97-7.7-7.97Z"/>
  <path class="cls-6" d="M52.2,122.74c9.52-2.18,9.54,11.03,1.48,10.44-5.96-.43-6.53-9.28-1.48-10.44Z"/>
  <path class="cls-3" d="M101.15,73.79c9.76-2.23,9.13,13.13-.4,10.18-4.41-1.37-4.22-9.12.4-10.18Z"/>
  <path class="cls-3" d="M3.78,73.79c9.52-2.22,8.93,13.1-.4,10.18-4.71-1.48-4.41-9.05.4-10.18Z"/>
  <path class="cls-6" d="M19.07,39.04c5.45-.68,8.45,7.14,3.24,10.12-7.48,4.28-11.85-9.04-3.24-10.12Z"/>
  <path class="cls-6" d="M84.64,48.23c-4.16-4.21,1.58-12.32,7.21-8,6.09,4.67-1.85,13.42-7.21,8Z"/>
  <path class="cls-27" d="M52.72,41.68c5.48-1.64,7.4,6.11,2.81,7.56-5.51,1.74-7.26-6.23-2.81-7.56Z"/>
  <path class="cls-2" d="M75.14,99.62c3.97-3.2,9.47,2.87,5.39,6.17-4.39,3.56-9.09-3.19-5.39-6.17Z"/>
  <path class="cls-2" d="M33.24,105.61c-4.21,3.86-9.18-2.79-5.61-5.87,3.88-3.34,9.38,2.41,5.61,5.87Z"/>
  <path class="cls-10" d="M53.79,108.52c5.31-.51,5.56,6.99,1.44,7.78-5.87,1.12-6.83-7.26-1.44-7.78Z"/>
  <path class="cls-10" d="M75.14,52.26c5.74-4.62,10.84,7.94,1.66,6.71-3.26-.44-3.8-4.99-1.66-6.71Z"/>
  <path class="cls-10" d="M19.04,75.36c5.44-1.63,7.37,5.07,3.46,7.14-5.02,2.67-8.21-5.72-3.46-7.14Z"/>
  <path class="cls-2" d="M85.88,75.37c5.59-1.64,7.82,4.95,3.44,7.14-5.28,2.63-7.49-5.95-3.44-7.14Z"/>
  <path class="cls-10" d="M33.25,58.26c-4.27,3.45-9.3-2.71-5.62-5.88,4.08-3.51,9.35,2.86,5.62,5.88Z"/>
  <path class="cls-18" d="M38.42,115.47c2.55.12,3.4,4.2.93,4.95-4.83,1.46-4.79-5.13-.93-4.95Z"/>
  <path class="cls-7" d="M14.85,92.72c3.54-.51,3.79,4.78.9,5.19-3.6.5-4.01-4.74-.9-5.19Z"/>
  <path class="cls-29" d="M36.94,37.43c3.12-.92,4.49,4.27,1.91,5.12-3.61,1.19-5.02-4.21-1.91-5.12Z"/>
  <path class="cls-9" d="M70.12,115.34c3.57-.67,4,4.98.35,5.18-2.9.16-3.48-4.6-.35-5.18Z"/>
  <path class="cls-18" d="M94.86,64.6c-2.48,2.52-6.69-2.55-3.03-4.36,2.8-1.39,5.04,2.32,3.03,4.36Z"/>
  <path class="cls-29" d="M16.96,61.18c2.73,2.73-2.6,6.54-4.36,3.03-1.26-2.51,2.48-4.91,4.36-3.03Z"/>
  <path class="cls-13" d="M68.28,41.98c-1.79-1.6-.28-6,3.03-4.36,3.54,1.75-.53,6.59-3.03,4.36Z"/>
  <path class="cls-13" d="M92.2,92.73c5-1.51,4.54,5.22.45,4.65-2.42-.34-2.58-4-.45-4.65Z"/>
  <path class="cls-29" d="M33.25,76.38c3.16-.93,4.67,4.34,1.36,5.12-3.02.71-4.42-4.22-1.36-5.12Z"/>
  <path class="cls-18" d="M73.78,76.38c3.41-.86,4.04,5.32.4,5.17-2.61-.1-3.23-4.46-.4-5.17Z"/>
  <path class="cls-13" d="M53.25,56.4c3.9-1.15,4.5,4.26,1.25,4.94-2.43.51-4.03-4.11-1.25-4.94Z"/>
  <path class="cls-24" d="M39.59,62.17c3.01-.41,3.96,4.73.32,5.07-2.88.27-3.39-4.66-.32-5.07Z"/>
  <path class="cls-18" d="M41.7,95.12c-1.2,1.22-3.77.49-4.09-1.19-1.11-5.83,7.59-2.35,4.09,1.19Z"/>
  <path class="cls-25" d="M53.25,96.92c4.15-1.23,4.62,5.05.44,4.66-2.36-.22-2.59-4.02-.44-4.66Z"/>
  <path class="cls-7" d="M70.12,95.13c-1.9,1.92-5.49-.73-3.6-3.33,2.1-2.89,5.89,1,3.6,3.33Z"/>
  <path class="cls-18" d="M70.12,62.76c2.3,2.32-1.49,6.21-3.6,3.33-1.9-2.6,1.7-5.25,3.6-3.33Z"/>
  <path class="cls-1" d="M67.02,104.28c1,1.56-.97,4.66-2.95,2.95-2.39-2.07,1.72-4.87,2.95-2.95Z"/>
  <path class="cls-14" d="M80.61,87.94c2.02-.5,3.26,2.94,1.4,3.56-3.45,1.15-3.59-3.01-1.4-3.56Z"/>
  <path class="cls-14" d="M80.05,65.82c2.5-.81,4.04,2.81,1.41,3.56-2.88.82-2.87-3.09-1.41-3.56Z"/>
  <path class="cls-5" d="M66.43,50.64c1.3,1.38.58,3.17-1.27,3.42-3.78.52-1-5.83,1.27-3.42Z"/>
  <path class="cls-24" d="M28.59,66.38c.98.62.86,3.7-1.64,3.51-3.22-.24-1.02-5.2,1.64-3.51Z"/>
  <path class="cls-14" d="M42.17,104.27c3.45-1.15,3.59,3.01,1.4,3.56-2.02.5-3.26-2.94-1.4-3.56Z"/>
  <path class="cls-18" d="M26.93,88.5c3.02-.85,2.81,3.05.84,3.54-2.1.52-3.28-2.85-.84-3.54Z"/>
  <path class="cls-7" d="M44.34,53.54c-2.32,2.19-4.63-1.48-2.52-2.77s3.82,1.55,2.52,2.77Z"/>
  <path class="cls-17" d="M53.67,85.79c2.11-.63,2.44,2.73,1.04,3.15-2.11.63-2.44-2.73-1.04-3.15Z"/>
  <path class="cls-22" d="M45.25,77.37c2.11-.63,2.44,2.73,1.04,3.15-2.11.63-2.44-2.73-1.04-3.15Z"/>
  <path class="cls-12" d="M47.97,71.65c2.45-.67,1.92,2.85.44,2.95-1.62.12-2.69-2.34-.44-2.95Z"/>
  <path class="cls-21" d="M55.46,69.52c1.64,2.61-3.67,3.9-2.55.25.35-1.14,2.31-.63,2.55-.25Z"/>
  <path class="cls-20" d="M63.85,77.97c1.83,2.97-4.46,3.31-2.3-.1.5-.8,2.13-.19,2.3.1Z"/>
  <path class="cls-28" d="M47.39,83.71c2.5-.77,3.02,2.21,1.53,2.6s-3.35-2.04-1.53-2.6Z"/>
  <path class="cls-15" d="M61.29,74.19c-.2.31-2.4.31-2.61,0-.31-.45.03-2.38.78-2.61,1.62-.5,2.36,1.81,1.82,2.61Z"/>
  <path class="cls-29" d="M61.3,83.68c.87,3.47-3.35,3.19-2.62.79.27-.88,1.85-.88,2.62-.79Z"/>
  <path class="cls-23" d="M47.36,61.57c1.74-.39,1.85,3.26-.53,2.62-1.45-.39-.34-2.43.53-2.62Z"/>
  <path class="cls-4" d="M61.83,96.31c-1.49,1.12-3.16-2.24-1.31-2.63,1.28-.27,2.1,2.03,1.31,2.63Z"/>
  <path class="cls-26" d="M37.09,73.67c-.79-.59.02-2.89,1.31-2.63,1.86.39.18,3.75-1.31,2.63Z"/>
  <path class="cls-19" d="M69.99,84.21c1.42-.32,1.8,2.33.51,2.63-1.42.32-1.8-2.33-.51-2.63Z"/>
  <path class="cls-11" d="M60.52,61.58c1.42-.32,1.8,2.33.51,2.63-1.42.32-1.8-2.33-.51-2.63Z"/>
  <path class="cls-21" d="M48.67,94.2c1.44,1.96-3.91,3.52-1.85-.02.35-.61,1.79-.07,1.85.02Z"/>
  <path class="cls-5" d="M39.19,84.73c.85.84-1.25,2.95-2.1,2.1-1.09-1.09.99-3.2,2.1-2.1Z"/>
  <path class="cls-14" d="M71.3,73.15c-.23.23-2.77.51-2.1-1.31.75-2.03,2.96.44,2.1,1.31Z"/>
  <path class="cls-3" d="M624.97,75.78h-17.1c-1.61-3.93-2.28-7.05-6.87-8.39-3.93-1.15-15.27-1.6-16.44,3.5s1.43,6.79,5.54,8.45c11.78,4.76,35.38,3.7,36.97,20.92,1.44,15.66-11.19,24.49-25.5,25.54-17.2,1.27-36.8-3.09-37.65-23.7h17.89c-1.31,14.3,28.58,15.53,26.28,1.34-.39-2.44-3.32-4.19-5.39-5.13-11.39-5.15-35.27-3.81-37.15-20.22-1.26-11.05,5.05-19.44,15.51-22.27,16.48-4.46,43.16-1.78,43.91,19.96Z"/>
  <path class="cls-16" d="M486.55,124.2l-.53-94.73h19.47l.53,33.68c-.29.26-.42,1.1-1.05,1.05V29.99h-18.43v94.21Z"/>
  <path class="cls-16" d="M361.35.97c.12.11.96-.49.99-.45.48,1.6-.67,1.41-.87,1.75-.35.62.19,1.56-.7,1.41l-1.05-3.16c1.61,1.11.51-.35,1.57-.52.03.28-.09.82.06.97Z"/>
  <g>
    <polygon class="cls-8" points="197.09 87.89 220.77 87.89 208.67 53.15 197.09 87.89"/>
    <path class="cls-3" d="M300.35,88.07l22-32.29h-20.26l-11.85,17.89c-.92.62-11.05-16.91-12.89-17.89h-20.79l22.02,32.45-24.12,34.91-34.27-93.09-21.54.18-35.77,93.97h21.05l7.7-20.98,34.95.17,7.14,20.84h40.5s1.54-.56,1.54-.56l13.43-21.05c5.16,6.87,10.03,14.07,14.2,21.58h21.58l-24.63-36.13ZM197.09,87.89l11.58-34.74,12.1,34.74h-23.68Z"/>
  </g>
  <path class="cls-3" d="M472.34,114.73c.17-14.23,0-28.44-.53-42.63-1.79-12.01-8.75-15.46-20-17.37l-2.63-.53c-1.21-.09-2.47.04-3.68,0-2.07-.48-4.24-.51-6.32,0-12.46.61-26.87,4.72-28.95,18.95-.17,1.18-.04,2.45-.52,3.68l18.62.04c1.17-3.89,2.19-7.91,6.51-9.37,5.22-1.76,15.67-1.7,17.76,4.59,4.27,12.87-15.19,11.38-23.02,12.79-11.17,2-21.17,6.15-21.98,19.07-1.35,21.71,22.33,25.81,38.41,19.2l7.89-4.73,1.06,5.79h18.95c-.99-3.41-1.41-5.94-1.58-9.47ZM449.71,109.2c-5.65,6.28-23.42,6.84-23.19-4.74,1.1-13.32,18.62-8.09,26.88-13.41.2,5.52.27,13.67-3.69,18.15Z"/>
  <path class="cls-3" d="M518.77,55.11c-6.05,1.58-8.35,4.17-12.75,8.04l-.53-.33c.06-11.08-.12-22.03-.53-32.82-5.95-.43-12.42-.45-18.42,0-.23,31.34-.23,62.74,0,94.21h17.89v-8.42l3.41,4.22c7.4,6.95,23.22,7.77,31.87,2.9,26.71-15.05,18.76-78.17-20.95-67.79ZM514.98,110.77c-15.38-5.67-14.49-42.6,5.66-42.74,23.61-.17,20.48,52.37-5.66,42.74Z"/>
</svg>