<?xml version="1.0" encoding="UTF-8"?>
<svg id="Capa_2" data-name="Capa 2" xmlns="http://www.w3.org/2000/svg" viewBox="0 0 573.73 131.12">
  <defs>
    <style>
      .cls-1 {
        fill: #fff;
      }

      .cls-2, .cls-3 {
        fill: none;
      }

      .cls-3 {
        stroke: #98d1c7;
        stroke-miterlimit: 10;
        stroke-width: 5px;
      }
    </style>
  </defs>
  <g id="Capa_1-2" data-name="Capa 1">
    <g>
      <path class="cls-1" d="M11.37,43.38h10.9v45.7h-10.9s0-45.7,0-45.7Z"/>
      <path class="cls-1" d="M41.77,43.38h13l15.1,45.7h-11.5l-6.3-23.1c-1.3-4.6-2.6-10-3.9-14.7h-.3c-1.2,4.8-2.4,10.2-3.8,14.7l-6.3,23.1h-11.1s15.1-45.7,15.1-45.7ZM36.67,70.08h23.1v8h-23.1s0-8,0-8Z"/>
      <path class="cls-1" d="M69.77,54.68l5.5-.4h16.8v8.1h-22.3v-7.7h0ZM74.57,52.48c0-7.3,3.6-13.4,13.5-13.4s5.7.7,7.3,1.2l-2,7.6c-1.2-.5-2.6-.8-3.8-.8-2.6,0-4.2,1.4-4.2,5v36.9h-10.8v-36.6.1Z"/>
      <path class="cls-1" d="M94.27,71.68c0-11.6,8.6-18.2,17.8-18.2s17.8,6.7,17.8,18.2-8.6,18.2-17.8,18.2-17.8-6.7-17.8-18.2ZM118.87,71.68c0-6-2.2-9.9-6.7-9.9s-6.7,3.9-6.7,9.9,2.2,9.9,6.7,9.9,6.7-3.9,6.7-9.9Z"/>
      <path class="cls-1" d="M136.57,54.28h8.8l.8,4.4h.3c3.1-2.8,6.8-5.2,11.8-5.2,8,0,11.4,5.3,11.4,14v21.6h-10.8v-20.3c0-5-1.4-6.6-4.5-6.6s-4.4,1.2-6.8,3.4v23.5h-10.8v-34.8h-.2Z"/>
      <path class="cls-1" d="M179.57,76.38v-14h-5v-7.7l5.6-.4,1.3-9.2h9v9.2h8.8v8.1h-8.8v13.9c0,3.9,1.9,5.5,4.7,5.5s2.5-.3,3.5-.7l1.7,7.5c-1.9.6-4.6,1.3-8.1,1.3-9,0-12.6-5.4-12.6-13.5h-.1Z"/>
    </g>
    <g>
      <path class="cls-1" d="M227.42,57.23h4.9v26.1h-4.9v-26.1Z"/>
      <path class="cls-1" d="M237.42,63.73h4l.4,2.7h.1c1.8-1.7,3.9-3.1,6.8-3.1,4.4,0,6.4,2.8,6.4,7.8v12.3h-4.8v-11.7c0-3.2-1-4.4-3.2-4.4s-3,.8-4.7,2.4v13.7h-4.8v-19.6l-.2-.1Z"/>
      <path class="cls-1" d="M260.22,76.73v-9.3h-2.9v-3.4l3.2-.2.6-5.3h4v5.3h5.3v3.7h-5.3v9.3c0,2.3.9,3.4,2.9,3.4s1.5-.2,2.2-.4l.8,3.4c-1.1.4-2.6.7-4.2.7-4.8,0-6.5-2.9-6.5-7.1l-.1-.1Z"/>
      <path class="cls-1" d="M271.12,73.53c0-6.4,4.7-10.3,9.5-10.3s8.5,3.8,8.5,9.3-.1,1.8-.2,2.2h-13.1c.4,3.5,2.8,5.5,6.1,5.5s3.3-.5,4.8-1.4l1.6,2.9c-2,1.3-4.5,2.1-7.1,2.1-5.7,0-10.2-3.8-10.2-10.3h.1ZM285.02,71.73c0-3-1.4-4.9-4.2-4.9s-4.5,1.7-4.9,4.9h9.2-.1Z"/>
      <path class="cls-1" d="M292.32,78.33v-23.2h4.8v23.4c0,1.1.5,1.5,1,1.5h.8l.6,3.4c-.6.2-1.4.4-2.6.4-3.4,0-4.7-2.1-4.7-5.5h.1Z"/>
      <path class="cls-1" d="M301.72,57.73c0-1.5,1.3-2.6,3-2.6s3,1.1,3,2.6-1.3,2.6-3,2.6-3-1.1-3-2.6ZM302.22,63.73h4.8v19.6h-4.8v-19.6Z"/>
      <path class="cls-1" d="M310.32,86.93c0-1.7,1.1-3.1,3-4.2v-.2c-1.1-.7-1.9-1.7-1.9-3.3s1.1-2.9,2.3-3.7v-.2c-1.4-1-2.7-2.9-2.7-5.2,0-4.5,3.8-7,8.1-7s2.2.2,3.1.5h7.4v3.4h-3.8c.7.7,1.2,1.9,1.2,3.3,0,4.4-3.5,6.7-7.8,6.7s-1.9-.2-2.8-.5c-.6.5-1,1-1,1.9s.8,1.8,3.3,1.8h3.7c4.9,0,7.6,1.5,7.6,4.8s-4.3,6.9-11,6.9-8.6-1.7-8.6-5.1l-.1.1ZM325.32,85.83c0-1.5-1.3-2-3.6-2h-2.8c-1.1,0-2,0-2.8-.3-1.1.8-1.6,1.7-1.6,2.6,0,1.8,2,2.8,5.3,2.8s5.6-1.5,5.6-3.2l-.1.1ZM322.72,70.33c0-2.5-1.6-3.9-3.6-3.9s-3.6,1.4-3.6,3.9,1.6,3.9,3.6,3.9,3.6-1.5,3.6-3.9Z"/>
      <path class="cls-1" d="M330.12,73.53c0-6.4,4.7-10.3,9.5-10.3s8.5,3.8,8.5,9.3-.1,1.8-.2,2.2h-13.1c.4,3.5,2.8,5.5,6.1,5.5s3.3-.5,4.8-1.4l1.6,2.9c-2,1.3-4.5,2.1-7.1,2.1-5.7,0-10.2-3.8-10.2-10.3h.1ZM343.92,71.73c0-3-1.4-4.9-4.2-4.9s-4.5,1.7-4.9,4.9h9.2-.1Z"/>
      <path class="cls-1" d="M351.32,63.73h4l.4,2.7h.1c1.8-1.7,3.9-3.1,6.8-3.1,4.4,0,6.4,2.8,6.4,7.8v12.3h-4.8v-11.7c0-3.2-1-4.4-3.2-4.4s-3,.8-4.7,2.4v13.7h-4.8v-19.6l-.2-.1Z"/>
      <path class="cls-1" d="M372.02,73.53c0-6.5,4.9-10.3,10.4-10.3s4.5,1,6,2.2l-2.4,3c-1.1-.9-2.1-1.4-3.4-1.4-3.3,0-5.6,2.6-5.6,6.5s2.3,6.5,5.5,6.5,3.1-.8,4.3-1.7l2,3c-1.9,1.6-4.4,2.4-6.7,2.4-5.6,0-9.9-3.8-9.9-10.3l-.2.1Z"/>
      <path class="cls-1" d="M390.72,57.73c0-1.5,1.3-2.6,3-2.6s3,1.1,3,2.6-1.3,2.6-3,2.6-3-1.1-3-2.6ZM391.32,63.73h4.8v19.6h-4.8v-19.6Z"/>
      <path class="cls-1" d="M399.72,78.13c0-4.2,3.7-6.4,12.1-7.2,0-2.1-1-3.9-3.7-3.9s-4,.9-5.8,1.9l-1.8-3.1c2.3-1.4,5.2-2.6,8.5-2.6,5.2,0,7.7,3,7.7,8.5v11.6h-4l-.4-2.2h-.1c-1.8,1.5-4,2.7-6.4,2.7-3.6,0-6.1-2.3-6.1-5.7h0ZM411.82,78.13v-4.4c-5.6.7-7.5,2.1-7.5,4s1.2,2.5,3,2.5,3-.8,4.5-2.1Z"/>
    </g>
    <line class="cls-3" x1="214.97" y1="28.65" x2="214.97" y2="112.44"/>
    <path class="cls-1" d="M433.82,57.18h5.7l9,26.1h-5.2l-4.2-13.9c-.9-2.8-1.7-5.7-2.5-8.6h-.2c-.8,2.9-1.6,5.8-2.4,8.6l-4.2,13.9h-5l9-26.1h0ZM430.22,72.58h12.9v3.6h-12.9v-3.6Z"/>
    <path class="cls-1" d="M450.02,63.68h4l.4,3.5h.1c1.5-2.6,3.7-4,5.9-4s1.7.1,2.3.4l-.8,4c-.7-.2-1.3-.3-2.1-.3-1.6,0-3.6,1.1-4.9,4.1v12h-4.8v-19.6l-.1-.1Z"/>
    <path class="cls-1" d="M464.92,76.68v-9.3h-2.9v-3.4l3.2-.2.6-5.3h4v5.3h5.3v3.7h-5.3v9.3c0,2.3.9,3.4,2.9,3.4s1.5-.2,2.2-.4l.8,3.4c-1.1.4-2.6.7-4.2.7-4.8,0-6.5-2.9-6.5-7.1l-.1-.1Z"/>
    <path class="cls-1" d="M477.32,57.68c0-1.5,1.3-2.6,3-2.6s3,1.1,3,2.6-1.3,2.6-3,2.6-3-1.1-3-2.6ZM477.92,63.68h4.8v19.6h-4.8v-19.6Z"/>
    <path class="cls-1" d="M485.52,63.88l3-.2h8.6v3.7h-11.6v-3.5ZM488.22,61.68c0-4.1,2-7,6.8-7s2.9.3,3.8.7l-.9,3.4c-.7-.3-1.5-.5-2.2-.5-1.7,0-2.6,1-2.6,3.3v21.7h-4.8v-21.6h-.1Z"/>
    <path class="cls-1" d="M498.72,57.68c0-1.5,1.3-2.6,3-2.6s3,1.1,3,2.6-1.3,2.6-3,2.6-3-1.1-3-2.6ZM499.32,63.68h4.8v19.6h-4.8v-19.6Z"/>
    <path class="cls-1" d="M507.42,73.58c0-6.5,4.9-10.3,10.4-10.3s4.5,1,6,2.2l-2.4,3c-1.1-.9-2.1-1.4-3.4-1.4-3.3,0-5.6,2.6-5.6,6.5s2.3,6.5,5.5,6.5,3.1-.8,4.3-1.7l2,3c-1.9,1.6-4.4,2.4-6.7,2.4-5.6,0-9.9-3.8-9.9-10.3l-.2.1Z"/>
    <path class="cls-1" d="M526.22,57.68c0-1.5,1.3-2.6,3-2.6s3,1.1,3,2.6-1.3,2.6-3,2.6-3-1.1-3-2.6ZM526.72,63.68h4.8v19.6h-4.8v-19.6Z"/>
    <path class="cls-1" d="M535.22,78.08c0-4.2,3.7-6.4,12.1-7.2,0-2.1-1-3.9-3.7-3.9s-4,.9-5.8,1.9l-1.8-3.1c2.3-1.4,5.2-2.6,8.5-2.6,5.2,0,7.7,3,7.7,8.5v11.6h-4l-.4-2.2h-.1c-1.8,1.5-4,2.7-6.4,2.7-3.6,0-6.1-2.3-6.1-5.7h0ZM547.32,78.08v-4.4c-5.6.7-7.5,2.1-7.5,4s1.2,2.5,3,2.5,3-.8,4.5-2.1Z"/>
    <path class="cls-1" d="M556.52,78.28v-23.2h4.8v23.4c0,1.1.5,1.5,1,1.5h.8l.6,3.4c-.6.2-1.4.4-2.6.4-3.4,0-4.7-2.1-4.7-5.5h.1Z"/>
    <rect class="cls-2" width="573.73" height="131.12"/>
  </g>
</svg>