<?xml version="1.0" encoding="UTF-8"?>
<svg id="Capa_1" xmlns="http://www.w3.org/2000/svg" version="1.1" viewBox="0 0 627.2 133.2">
  <!-- Generator: Adobe Illustrator 29.0.0, SVG Export Plug-In . SVG Version: 2.1.0 Build 186)  -->
  <defs>
    <style>
      .st0 {
        fill: #df4242;
      }

      .st1 {
        fill: #e04645;
      }

      .st2 {
        fill: #e1514f;
      }

      .st3 {
        fill: #df4243;
      }

      .st4 {
        fill: #e04344;
      }

      .st5 {
        fill: #e25653;
      }

      .st6 {
        fill: #e46864;
      }

      .st7 {
        fill: #e04545;
      }

      .st8 {
        fill: #f9f7f6;
      }

      .st9 {
        fill: #e04847;
      }

      .st10 {
        fill: #e14e4c;
      }

      .st11 {
        fill: #e15351;
      }

      .st12 {
        fill: #e25854;
      }

      .st13 {
        fill: #e25351;
      }

      .st14 {
        fill: #e1514e;
      }

      .st15 {
        fill: #e04343;
      }

      .st16 {
        fill: #e04948;
      }

      .st17 {
        fill: #e25957;
      }

      .st18 {
        fill: #df4343;
      }

      .st19 {
        fill: #e04a49;
      }

      .st20 {
        fill: #e04746;
      }

      .st21 {
        fill: #e04544;
      }

      .st22 {
        fill: #e15350;
      }

      .st23 {
        fill: #e1504e;
      }

      .st24 {
        fill: #e15250;
      }

      .st25 {
        fill: #e04646;
      }

      .st26 {
        fill: #e14d4c;
      }

      .st27 {
        fill: #e25a57;
      }
    </style>
  </defs>
  <polygon class="st0" points="355 30 355 106.8 400.8 106.8 400.8 124.2 334.5 124.2 334.5 30 355 30"/>
  <rect class="st0" x="133.9" y="30" width="20.5" height="94.2"/>
  <path class="st3" d="M19.1,108c7.1-.8,8.2,10.7.9,11-6.9.3-7.9-10.2-.9-11Z"/>
  <path class="st15" d="M53.3,24.8c7.5-1.1,8.5,10.1,1.3,10.8-6.5.7-8.4-9.8-1.3-10.8Z"/>
  <path class="st3" d="M84.6,109.6c5-5.4,13.1,3,7.7,8-5.1,4.7-12.3-3-7.7-8Z"/>
  <path class="st3" d="M52.2,122.7c9.5-2.2,9.5,11,1.5,10.4-6-.4-6.5-9.3-1.5-10.4Z"/>
  <path class="st0" d="M101.2,73.8c9.8-2.2,9.1,13.1-.4,10.2-4.4-1.4-4.2-9.1.4-10.2Z"/>
  <path class="st0" d="M3.8,73.8c9.5-2.2,8.9,13.1-.4,10.2-4.7-1.5-4.4-9.1.4-10.2Z"/>
  <path class="st3" d="M19.1,39c5.5-.7,8.5,7.1,3.2,10.1-7.5,4.3-11.9-9-3.2-10.1Z"/>
  <path class="st3" d="M84.6,48.2c-4.2-4.2,1.6-12.3,7.2-8,6.1,4.7-1.8,13.4-7.2,8Z"/>
  <path class="st18" d="M52.7,41.7c5.5-1.6,7.4,6.1,2.8,7.6-5.5,1.7-7.3-6.2-2.8-7.6Z"/>
  <path class="st4" d="M75.1,99.6c4-3.2,9.5,2.9,5.4,6.2-4.4,3.6-9.1-3.2-5.4-6.2Z"/>
  <path class="st4" d="M33.2,105.6c-4.2,3.9-9.2-2.8-5.6-5.9,3.9-3.3,9.4,2.4,5.6,5.9Z"/>
  <path class="st15" d="M53.8,108.5c5.3-.5,5.6,7,1.4,7.8-5.9,1.1-6.8-7.3-1.4-7.8Z"/>
  <path class="st15" d="M75.1,52.3c5.7-4.6,10.8,7.9,1.7,6.7-3.3-.4-3.8-5-1.7-6.7Z"/>
  <path class="st15" d="M19,75.4c5.4-1.6,7.4,5.1,3.5,7.1-5,2.7-8.2-5.7-3.5-7.1Z"/>
  <path class="st4" d="M85.9,75.4c5.6-1.6,7.8,4.9,3.4,7.1-5.3,2.6-7.5-5.9-3.4-7.1Z"/>
  <path class="st15" d="M33.2,58.3c-4.3,3.4-9.3-2.7-5.6-5.9,4.1-3.5,9.4,2.9,5.6,5.9Z"/>
  <path class="st20" d="M38.4,115.5c2.5.1,3.4,4.2.9,4.9-4.8,1.5-4.8-5.1-.9-4.9Z"/>
  <path class="st25" d="M14.9,92.7c3.5-.5,3.8,4.8.9,5.2-3.6.5-4-4.7-.9-5.2Z"/>
  <path class="st9" d="M36.9,37.4c3.1-.9,4.5,4.3,1.9,5.1-3.6,1.2-5-4.2-1.9-5.1Z"/>
  <path class="st1" d="M70.1,115.3c3.6-.7,4,5,.3,5.2-2.9.2-3.5-4.6-.3-5.2Z"/>
  <path class="st20" d="M94.9,64.6c-2.5,2.5-6.7-2.5-3-4.4,2.8-1.4,5,2.3,3,4.4Z"/>
  <path class="st9" d="M17,61.2c2.7,2.7-2.6,6.5-4.4,3-1.3-2.5,2.5-4.9,4.4-3Z"/>
  <path class="st7" d="M68.3,42c-1.8-1.6-.3-6,3-4.4,3.5,1.8-.5,6.6-3,4.4Z"/>
  <path class="st7" d="M92.2,92.7c5-1.5,4.5,5.2.4,4.7-2.4-.3-2.6-4-.4-4.7Z"/>
  <path class="st9" d="M33.2,76.4c3.2-.9,4.7,4.3,1.4,5.1-3,.7-4.4-4.2-1.4-5.1Z"/>
  <path class="st20" d="M73.8,76.4c3.4-.9,4,5.3.4,5.2-2.6,0-3.2-4.5-.4-5.2Z"/>
  <path class="st7" d="M53.2,56.4c3.9-1.2,4.5,4.3,1.2,4.9-2.4.5-4-4.1-1.2-4.9Z"/>
  <path class="st16" d="M39.6,62.2c3-.4,4,4.7.3,5.1-2.9.3-3.4-4.7-.3-5.1Z"/>
  <path class="st20" d="M41.7,95.1c-1.2,1.2-3.8.5-4.1-1.2-1.1-5.8,7.6-2.3,4.1,1.2Z"/>
  <path class="st21" d="M53.2,96.9c4.2-1.2,4.6,5.1.4,4.7-2.4-.2-2.6-4-.4-4.7Z"/>
  <path class="st25" d="M70.1,95.1c-1.9,1.9-5.5-.7-3.6-3.3,2.1-2.9,5.9,1,3.6,3.3Z"/>
  <path class="st20" d="M70.1,62.8c2.3,2.3-1.5,6.2-3.6,3.3-1.9-2.6,1.7-5.2,3.6-3.3Z"/>
  <path class="st14" d="M67,104.3c1,1.6-1,4.7-2.9,2.9-2.4-2.1,1.7-4.9,2.9-2.9Z"/>
  <path class="st19" d="M80.6,87.9c2-.5,3.3,2.9,1.4,3.6-3.4,1.2-3.6-3-1.4-3.6Z"/>
  <path class="st19" d="M80.1,65.8c2.5-.8,4,2.8,1.4,3.6-2.9.8-2.9-3.1-1.4-3.6Z"/>
  <path class="st10" d="M66.4,50.6c1.3,1.4.6,3.2-1.3,3.4-3.8.5-1-5.8,1.3-3.4Z"/>
  <path class="st16" d="M28.6,66.4c1,.6.9,3.7-1.6,3.5-3.2-.2-1-5.2,1.6-3.5Z"/>
  <path class="st19" d="M42.2,104.3c3.5-1.2,3.6,3,1.4,3.6-2,.5-3.3-2.9-1.4-3.6Z"/>
  <path class="st20" d="M26.9,88.5c3-.8,2.8,3.1.8,3.5-2.1.5-3.3-2.8-.8-3.5Z"/>
  <path class="st25" d="M44.3,53.5c-2.3,2.2-4.6-1.5-2.5-2.8s3.8,1.5,2.5,2.8Z"/>
  <path class="st5" d="M53.7,85.8c2.1-.6,2.4,2.7,1,3.2-2.1.6-2.4-2.7-1-3.2Z"/>
  <path class="st11" d="M45.2,77.4c2.1-.6,2.4,2.7,1,3.2-2.1.6-2.4-2.7-1-3.2Z"/>
  <path class="st12" d="M48,71.7c2.5-.7,1.9,2.8.4,2.9-1.6.1-2.7-2.3-.4-2.9Z"/>
  <path class="st23" d="M55.5,69.5c1.6,2.6-3.7,3.9-2.5.2.3-1.1,2.3-.6,2.5-.2Z"/>
  <path class="st24" d="M63.8,78c1.8,3-4.5,3.3-2.3,0,.5-.8,2.1-.2,2.3,0Z"/>
  <path class="st22" d="M47.4,83.7c2.5-.8,3,2.2,1.5,2.6s-3.3-2-1.5-2.6Z"/>
  <path class="st26" d="M61.3,74.2c-.2.3-2.4.3-2.6,0-.3-.4,0-2.4.8-2.6,1.6-.5,2.4,1.8,1.8,2.6h0Z"/>
  <path class="st9" d="M61.3,83.7c.9,3.5-3.3,3.2-2.6.8.3-.9,1.8-.9,2.6-.8Z"/>
  <path class="st6" d="M47.4,61.6c1.7-.4,1.8,3.3-.5,2.6-1.5-.4-.3-2.4.5-2.6Z"/>
  <path class="st17" d="M61.8,96.3c-1.5,1.1-3.2-2.2-1.3-2.6,1.3-.3,2.1,2,1.3,2.6Z"/>
  <path class="st27" d="M37.1,73.7c-.8-.6,0-2.9,1.3-2.6,1.9.4.2,3.8-1.3,2.6Z"/>
  <path class="st2" d="M70,84.2c1.4-.3,1.8,2.3.5,2.6-1.4.3-1.8-2.3-.5-2.6Z"/>
  <path class="st13" d="M60.5,61.6c1.4-.3,1.8,2.3.5,2.6-1.4.3-1.8-2.3-.5-2.6Z"/>
  <path class="st23" d="M48.7,94.2c1.4,2-3.9,3.5-1.8,0,.3-.6,1.8,0,1.8,0Z"/>
  <path class="st10" d="M39.2,84.7c.8.8-1.2,2.9-2.1,2.1-1.1-1.1,1-3.2,2.1-2.1Z"/>
  <path class="st19" d="M71.3,73.2c-.2.2-2.8.5-2.1-1.3.8-2,3,.4,2.1,1.3Z"/>
  <path class="st0" d="M625,75.8h-17.1c-1.6-3.9-2.3-7.1-6.9-8.4-3.9-1.2-15.3-1.6-16.4,3.5s1.4,6.8,5.5,8.4c11.8,4.8,35.4,3.7,37,20.9,1.4,15.7-11.2,24.5-25.5,25.5-17.2,1.3-36.8-3.1-37.7-23.7h17.9c-1.3,14.3,28.6,15.5,26.3,1.3-.4-2.4-3.3-4.2-5.4-5.1-11.4-5.2-35.3-3.8-37.2-20.2-1.3-11.1,5-19.4,15.5-22.3,16.5-4.5,43.2-1.8,43.9,20h0Z"/>
  <path class="st8" d="M486.5,124.2l-.5-94.7h19.5l.5,33.7c-.3.3-.4,1.1-1,1.1V30h-18.4v94.2h0Z"/>
  <path class="st0" d="M300.4,88.1l22-32.3h-20.3l-11.9,17.9c-.9.6-11-16.9-12.9-17.9h-20.8l22,32.4-24.1,34.9-34.3-93.1-21.5.2-35.8,94h21.1l7.7-21,34.9.2,7.1,20.8h40.5l1.5-.6,13.4-21.1c5.2,6.9,10,14.1,14.2,21.6h21.6l-24.6-36.1h0ZM197.1,87.9l11.6-34.7,12.1,34.7h-23.7Z"/>
  <path class="st0" d="M472.3,114.7c.2-14.2,0-28.4-.5-42.6-1.8-12-8.8-15.5-20-17.4l-2.6-.5c-1.2,0-2.5,0-3.7,0-2.1-.5-4.2-.5-6.3,0-12.5.6-26.9,4.7-29,19-.2,1.2,0,2.4-.5,3.7h18.6c1.2-3.8,2.2-7.9,6.5-9.3,5.2-1.8,15.7-1.7,17.8,4.6,4.3,12.9-15.2,11.4-23,12.8-11.2,2-21.2,6.2-22,19.1-1.4,21.7,22.3,25.8,38.4,19.2l7.9-4.7,1.1,5.8h19c-1-3.4-1.4-5.9-1.6-9.5h0ZM449.7,109.2c-5.6,6.3-23.4,6.8-23.2-4.7,1.1-13.3,18.6-8.1,26.9-13.4.2,5.5.3,13.7-3.7,18.1Z"/>
  <path class="st0" d="M518.8,55.1c-6,1.6-8.4,4.2-12.8,8l-.5-.3c0-11.1-.1-22-.5-32.8-6-.4-12.4-.4-18.4,0-.2,31.3-.2,62.7,0,94.2h17.9v-8.4l3.4,4.2c7.4,6.9,23.2,7.8,31.9,2.9,26.7-15.1,18.8-78.2-21-67.8h0ZM515,110.8c-15.4-5.7-14.5-42.6,5.7-42.7,23.6-.2,20.5,52.4-5.7,42.7Z"/>
</svg>